<svg width="181" height="181" fill="none" xmlns="http://www.w3.org/2000/svg"><path fill-rule="evenodd" clip-rule="evenodd" d="M90.058.233l8.461 26.023L113.432 3.31l1.433 27.324 20.348-18.309-5.693 26.764 24.397-12.422-12.431 24.38 26.783-5.69-15.53 17.237h23.208l-22.151 16.083 26.448 7.081-25.562 9.806 23.712 13.681-27.23 2.86 19.361 19.348-27.044-4.281 13.69 23.697-21.202-9.434 7.172 22.058-22.152-16.083 1.433 27.325-17.231-21.265-5.693 26.764-11.136-24.996-12.431 24.379-4.283-27.025-18.322 20.334 2.426-23.066-18.776 13.633 8.46-26.023-25.561 9.806 14.913-22.948-27.231 2.86 20.348-18.308L.86 104.598l24.396-12.422L.244 81.047l22.701-4.822L4.17 62.593h27.38L14.32 41.328l26.447 7.082L29.63 23.414l23.712 13.681L49.06 10.07l19.36 19.347 2.862-27.212 11.604 20.086L90.058.233z" fill="#37E185"/></svg>