<svg width="181" height="181" viewBox="0 0 181 181" fill="none" xmlns="http://www.w3.org/2000/svg">
<path fill-rule="evenodd" clip-rule="evenodd" d="M90.0582 0.233337L98.5194 26.2564L113.432 3.30855L114.865 30.6329L135.213 12.3243L129.52 39.0882L153.917 26.666L141.486 51.0457L168.269 45.3569L152.739 62.5926H175.947L153.796 78.6756L180.244 85.7574L154.682 95.5631L178.394 109.244L151.164 112.104L170.525 131.452L143.481 127.171L157.171 150.868L135.969 141.434L143.141 163.492L120.989 147.409L122.422 174.734L105.191 153.469L99.4982 180.233L88.3615 155.237L75.931 179.616L71.6477 152.591L53.3263 172.925L55.7524 149.859L36.9757 163.492L45.4367 137.469L19.8749 147.275L34.7876 124.327L7.55672 127.187L27.9048 108.879L0.86111 104.598L25.2575 92.1762L0.243896 81.0471L22.9453 76.225L4.16894 62.5926H31.5499L14.3187 41.3285L40.7664 48.4102L29.6296 23.4139L53.3423 37.095L49.059 10.0696L68.42 29.4174L71.2821 2.20542L82.8863 22.2907L90.0582 0.233337Z" fill="#37E185"/>
</svg>
